<?xml version="1.0" encoding="UTF-8"?>
<svg id="katman_2" data-name="katman 2" xmlns="http://www.w3.org/2000/svg" viewBox="0 0 174.77 67.9">
  <defs>
    <style>
      .cls-1 {
        fill: #9ABAD8;
      }
    </style>
  </defs>
  <g id="katman_1" data-name="katman 1">
    <g>
      <path class="cls-1" d="M15.17,65.5L.07,20.6c-.2-.8,0-1.3.9-1.3h18.6c.9,0,1.5.4,1.7,1.3l5.1,19.2h1.3l.8-19.1c0-.9.5-1.4,1.4-1.6,6.8-1,11.4-.5,13.8,1.5s3.7,4.9,3.7,8.7-.4,4.4-1.3,6.8c-.9,2.4-2.3,5.7-4.3,9.8l-1.7,3.4-7.5,16.1c-.4.8-1,1.3-1.9,1.3h-13.7c-.9,0-1.5-.4-1.8-1.3h0v.1ZM38.27,42.9c.8-.8,1.3-2,1.3-3.5s-.4-2.9-1.2-3.8c-.8-.8-2-1.3-3.6-1.3s-2.8.4-3.7,1.3c-.8.8-1.2,2.1-1.2,3.7s.4,2.8,1.2,3.6,2,1.2,3.5,1.2,2.9-.4,3.7-1.2h0Z"/>
      <path class="cls-1" d="M52.97,14.1c-2-1.5-2.9-3.4-2.9-5.7s1-4.5,2.9-6.1c2-1.5,4.9-2.3,8.7-2.3s6.7.8,8.7,2.3,2.9,3.6,2.9,6.1-1,4.3-2.9,5.7c-2,1.5-4.8,2.2-8.7,2.2s-6.8-.7-8.7-2.2ZM51.57,65.4V20.6c0-.9.4-1.3,1.3-1.3h17.3c.9,0,1.3.4,1.3,1.3v44.8c0,.9-.4,1.3-1.3,1.3h-17.3c-.9,0-1.3-.4-1.3-1.3Z"/>
      <path class="cls-1" d="M101.17,62.7c-1.9-3.4-2.9-7.3-3.1-11.8h-1.3v14.5c0,.9-.4,1.3-1.3,1.3h-16.5c-.9,0-1.3-.4-1.3-1.3V9.3c0-.9.4-1.3,1.3-1.3h17.3c.9,0,1.3.4,1.3,1.3v21h1.3c.2-3.2,1.3-6.1,3.3-8.4,2-2.4,5.1-3.6,9.2-3.6s8.1,1.8,10.7,5.5c2.6,3.6,3.9,9.6,3.9,18s-1.4,15.8-4.3,19.9c-2.9,4.1-6.5,6.2-11,6.2s-7.6-1.7-9.5-5v-.2h0ZM104.57,46.5c.8-1.2,1.2-3.1,1.2-5.7s-.4-4.6-1.1-5.8c-.7-1.1-1.8-1.7-3.2-1.7s-2.5.5-3.3,1.6-1.2,2.9-1.2,5.5.4,4.8,1.1,6c.7,1.2,1.8,1.8,3.3,1.8s2.4-.6,3.2-1.8h0v.1Z"/>
      <path class="cls-1" d="M140.87,65c-3.6-1.8-6.4-4.6-8.4-8.3-2-3.8-3.1-8.4-3.1-14s1-9.8,2.9-13.5c2-3.7,4.7-6.4,8.2-8.2s7.7-2.7,12.4-2.7,10.3,1.2,13.9,3.7c3.5,2.4,5.8,5.6,6.8,9.5.2.9,0,1.6-.8,2.1l-26,16.9,1.9-8.1c0,2.3.3,4.1.7,5.5.4,1.3.9,2.3,1.6,2.9.6.6,1.4.8,2.4.8,1.7,0,3-.8,3.8-2.5.9-1.7,1.2-4.4,1.1-8.1h15.2c.9,0,1.3.4,1.3,1.3,0,6.4-.9,11.6-2.8,15.3-1.9,3.8-4.5,6.4-7.7,8-3.2,1.5-7,2.3-11.3,2.3s-8.8-.9-12.3-2.7l.2-.2h0ZM156.07,41.3c.8-.6,1.3-1.5,1.3-2.6s-.4-2.1-1.1-2.8c-.8-.7-1.9-1-3.6-1s-2.8.4-3.6,1c-.8.7-1.1,1.6-1.1,2.8s.4,2.1,1.1,2.6c.7.6,1.8.9,3.4.9s2.9-.3,3.7-.9h-.1Z"/>
    </g>
  </g>
</svg>